<svg width="43" height="43" viewBox="0 0 43 43" fill="none" xmlns="http://www.w3.org/2000/svg">
<circle cx="21.5" cy="21.5" r="21.5" fill="#00D19A" fill-opacity="0.15"/>
<path d="M30.05 6.99981H13.95C12.3879 6.98581 10.884 7.59218 9.76848 8.68583C8.65296 9.77948 8.01693 11.271 8 12.8331L8 16.3331C8 16.6426 8.12292 16.9393 8.34171 17.1581C8.5605 17.3769 8.85725 17.4998 9.16667 17.4998C9.47609 17.4998 9.77283 17.3769 9.99162 17.1581C10.2104 16.9393 10.3333 16.6426 10.3333 16.3331V12.8331C10.3499 11.8898 10.74 10.9915 11.418 10.3354C12.096 9.67921 13.0066 9.31879 13.95 9.33314H30.05C30.9934 9.31879 31.904 9.67921 32.582 10.3354C33.26 10.9915 33.6501 11.8898 33.6667 12.8331V29.1665C33.6501 30.1098 33.26 31.0081 32.582 31.6643C31.904 32.3204 30.9934 32.6808 30.05 32.6665H13.95C13.0066 32.6808 12.096 32.3204 11.418 31.6643C10.74 31.0081 10.3499 30.1098 10.3333 29.1665V25.6665C10.3333 25.3571 10.2104 25.0603 9.99162 24.8415C9.77283 24.6227 9.47609 24.4998 9.16667 24.4998C8.85725 24.4998 8.5605 24.6227 8.34171 24.8415C8.12292 25.0603 8 25.3571 8 25.6665V29.1665C8.01693 30.7286 8.65296 32.2201 9.76848 33.3138C10.884 34.4074 12.3879 35.0138 13.95 34.9998H30.05C31.6121 35.0138 33.116 34.4074 34.2315 33.3138C35.347 32.2201 35.9831 30.7286 36 29.1665V12.8331C35.9831 11.271 35.347 9.77948 34.2315 8.68583C33.116 7.59218 31.6121 6.98581 30.05 6.99981Z" fill="#00D19A"/>
<path d="M11.5 21C11.5 21.3094 11.6229 21.6062 11.8417 21.8249C12.0605 22.0437 12.3572 22.1667 12.6667 22.1667L28.0527 22.1317L23.0092 27.1752C22.8977 27.2828 22.8089 27.4115 22.7477 27.5538C22.6866 27.6962 22.6544 27.8493 22.653 28.0042C22.6517 28.1591 22.6812 28.3127 22.7399 28.4561C22.7985 28.5995 22.8852 28.7297 22.9947 28.8393C23.1042 28.9488 23.2345 29.0355 23.3779 29.0941C23.5213 29.1528 23.6749 29.1823 23.8298 29.1809C23.9847 29.1796 24.1378 29.1474 24.2801 29.0863C24.4225 29.0251 24.5512 28.9362 24.6588 28.8248L30.0092 23.4745C30.6653 22.8181 31.0339 21.9281 31.0339 21C31.0339 20.0719 30.6653 19.1818 30.0092 18.5255L24.6612 13.1752C24.4411 12.9626 24.1464 12.845 23.8405 12.8477C23.5346 12.8504 23.242 12.9731 23.0257 13.1894C22.8094 13.4057 22.6867 13.6983 22.684 14.0042C22.6814 14.3101 22.799 14.6048 23.0115 14.8248L27.9838 19.7983L12.6667 19.8333C12.3572 19.8333 12.0605 19.9562 11.8417 20.175C11.6229 20.3938 11.5 20.6906 11.5 21Z" fill="#00D19A"/>

</svg>
