<svg width="43" height="43" viewBox="0 0 43 43" fill="none" xmlns="http://www.w3.org/2000/svg">
<path d="M43 21.5C43 33.3741 33.3741 43 21.5 43C9.62588 43 0 33.3741 0 21.5C0 9.62588 9.62588 0 21.5 0C33.3741 0 43 9.62588 43 21.5Z" fill="#00D19A" fill-opacity="0.15"/>
<path d="M29.9914 29.0237C29.4229 29.0258 28.8595 28.9138 28.3339 28.6941C27.8084 28.4744 27.331 28.1515 26.9294 27.7438L22.5064 23.2618C22.3499 23.1103 22.1418 23.0258 21.9253 23.0258C21.7089 23.0258 21.5008 23.1103 21.3443 23.2618L16.9063 27.7561C16.505 28.1644 16.0277 28.488 15.5022 28.7083C14.9766 28.9286 14.4131 29.0413 13.8443 29.0398H12.9784L18.5831 34.7157C19.4237 35.5651 20.5627 36.0422 21.7502 36.0422C22.9377 36.0422 24.0767 35.5651 24.9173 34.7157L30.5332 29.0275L29.9914 29.0237Z" fill="#00D19A"/>
<path d="M13.8452 13.1844C14.4141 13.1829 14.9775 13.2955 15.5031 13.5159C16.0287 13.7362 16.5059 14.0599 16.9073 14.4681L21.3453 18.9633C21.4995 19.1191 21.7085 19.2065 21.9263 19.2065C22.1441 19.2065 22.353 19.1191 22.5073 18.9633L26.9294 14.4851C27.3304 14.0764 27.8076 13.7523 28.3332 13.5318C28.8588 13.3113 29.4225 13.1987 29.9915 13.2005H30.5239L24.908 7.51334C24.4921 7.09205 23.9984 6.75785 23.455 6.52984C22.9115 6.30183 22.3291 6.18447 21.7409 6.18447C21.1526 6.18447 20.5702 6.30183 20.0268 6.52984C19.4833 6.75785 18.9896 7.09205 18.5737 7.51334L12.9784 13.1844H13.8452Z" fill="#00D19A"/>
<path d="M35.1693 17.9058L31.7756 14.469C31.6991 14.5007 31.6173 14.5174 31.5346 14.5182H29.9915C29.1884 14.5203 28.4187 14.8432 27.8495 15.4169L23.4274 19.8923C23.0292 20.2949 22.4894 20.521 21.9267 20.521C21.364 20.521 20.8243 20.2949 20.4261 19.8923L15.9872 15.3999C15.4182 14.8259 14.6484 14.5026 13.8452 14.5003H11.9508C11.8728 14.4985 11.7956 14.4828 11.7229 14.4539L8.30777 17.9058C7.46896 18.757 6.99787 19.9105 6.99787 21.1131C6.99787 22.3156 7.46896 23.4691 8.30777 24.3204L11.7154 27.7713C11.788 27.7419 11.8652 27.7261 11.9434 27.7249H13.8452C14.6483 27.7225 15.4181 27.3992 15.9872 26.8253L20.4251 22.331C21.2276 21.5194 22.6259 21.5194 23.4274 22.331L27.8495 26.8083C28.4187 27.382 29.1884 27.7049 29.9915 27.7069H31.5346C31.6173 27.7075 31.6991 27.7242 31.7756 27.7561L35.1693 24.3194C35.5853 23.8983 35.9153 23.3983 36.1404 22.848C36.3656 22.2977 36.4815 21.7078 36.4815 21.1121C36.4815 20.5164 36.3656 19.9266 36.1404 19.3763C35.9153 18.826 35.5853 18.3269 35.1693 17.9058Z" fill="#00D19A"/>
</svg>
