<svg width="43" height="43" viewBox="0 0 43 43" fill="none" xmlns="http://www.w3.org/2000/svg">
<circle cx="21.5" cy="21.5" r="21.5" fill="#00D19A" fill-opacity="0.15"/>
<path d="M9 16.5833C9 16.296 9.11414 16.0204 9.3173 15.8173C9.52046 15.6141 9.79601 15.5 10.0833 15.5H28.5V11.8589C28.5021 11.6904 28.5538 11.5262 28.6486 11.3869C28.7435 11.2476 28.8772 11.1393 29.0332 11.0755C29.1892 11.0118 29.3605 10.9953 29.5257 11.0283C29.691 11.0613 29.8429 11.1422 29.9625 11.2609L34.7486 15.9853C34.8275 16.0632 34.8901 16.156 34.9329 16.2583C34.9756 16.3605 34.9976 16.4703 34.9976 16.5811C34.9976 16.692 34.9756 16.8017 34.9329 16.904C34.8901 17.0063 34.8275 17.0991 34.7486 17.177L29.9625 21.9057C29.8429 22.0245 29.691 22.1054 29.5257 22.1383C29.3605 22.1713 29.1892 22.1549 29.0332 22.0911C28.8772 22.0273 28.7435 21.919 28.6486 21.7797C28.5538 21.6404 28.5021 21.4762 28.5 21.3077V17.6666H10.0833C9.79601 17.6666 9.52046 17.5525 9.3173 17.3493C9.11414 17.1462 9 16.8706 9 16.5833ZM33.9166 26.3333H15.5V22.6922C15.4979 22.5237 15.4462 22.3596 15.3513 22.2203C15.2565 22.081 15.1228 21.9726 14.9668 21.9089C14.8108 21.8451 14.6395 21.8287 14.4742 21.8616C14.309 21.8946 14.1571 21.9755 14.0375 22.0942L9.25133 26.8186C9.17246 26.8965 9.10984 26.9893 9.0671 27.0916C9.02436 27.1939 9.00235 27.3036 9.00235 27.4145C9.00235 27.5253 9.02436 27.6351 9.0671 27.7374C9.10984 27.8396 9.17246 27.9324 9.25133 28.0103L14.0375 32.7391C14.1571 32.8578 14.309 32.9387 14.4742 32.9717C14.6395 33.0046 14.8108 32.9882 14.9668 32.9244C15.1228 32.8606 15.2565 32.7523 15.3513 32.613C15.4462 32.4737 15.4979 32.3096 15.5 32.1411V28.5H33.9166C34.204 28.5 34.4795 28.3858 34.6827 28.1827C34.8858 27.9795 35 27.704 35 27.4166C35 27.1293 34.8858 26.8538 34.6827 26.6506C34.4795 26.4474 34.204 26.3333 33.9166 26.3333Z" fill="#00D19A"/>

</svg>
