<svg width="20" height="20" viewBox="0 0 20 20" fill="none" xmlns="http://www.w3.org/2000/svg">
<path d="M15.4545 20H4.54545C3.34037 19.9987 2.18505 19.5593 1.33293 18.7782C0.480802 17.997 0.00144351 16.938 0 15.8333V4.16667C0.00144351 3.062 0.480802 2.00296 1.33293 1.22185C2.18505 0.440735 3.34037 0.00132321 4.54545 0L15.4545 0C16.6596 0.00132321 17.8149 0.440735 18.6671 1.22185C19.5192 2.00296 19.9986 3.062 20 4.16667V15.8333C19.9986 16.938 19.5192 17.997 18.6671 18.7782C17.8149 19.5593 16.6596 19.9987 15.4545 20ZM4.54545 1.66667C3.82214 1.66667 3.12844 1.93006 2.61698 2.3989C2.10552 2.86774 1.81818 3.50363 1.81818 4.16667V15.8333C1.81818 16.4964 2.10552 17.1323 2.61698 17.6011C3.12844 18.0699 3.82214 18.3333 4.54545 18.3333H15.4545C16.1779 18.3333 16.8716 18.0699 17.383 17.6011C17.8945 17.1323 18.1818 16.4964 18.1818 15.8333V4.16667C18.1818 3.50363 17.8945 2.86774 17.383 2.3989C16.8716 1.93006 16.1779 1.66667 15.4545 1.66667H4.54545ZM13.6364 8.33333H6.36364C5.64032 8.33333 4.94663 8.06994 4.43516 7.6011C3.9237 7.13226 3.63636 6.49637 3.63636 5.83333C3.63636 5.17029 3.9237 4.53441 4.43516 4.06557C4.94663 3.59673 5.64032 3.33333 6.36364 3.33333H13.6364C14.3597 3.33333 15.0534 3.59673 15.5648 4.06557C16.0763 4.53441 16.3636 5.17029 16.3636 5.83333C16.3636 6.49637 16.0763 7.13226 15.5648 7.6011C15.0534 8.06994 14.3597 8.33333 13.6364 8.33333ZM6.36364 5C6.12253 5 5.8913 5.0878 5.72081 5.24408C5.55032 5.40036 5.45455 5.61232 5.45455 5.83333C5.45455 6.05435 5.55032 6.26631 5.72081 6.42259C5.8913 6.57887 6.12253 6.66667 6.36364 6.66667H13.6364C13.8775 6.66667 14.1087 6.57887 14.2792 6.42259C14.4497 6.26631 14.5455 6.05435 14.5455 5.83333C14.5455 5.61232 14.4497 5.40036 14.2792 5.24408C14.1087 5.0878 13.8775 5 13.6364 5H6.36364ZM4.54545 10.8333C4.36565 10.8333 4.18989 10.8822 4.04039 10.9738C3.89089 11.0653 3.77437 11.1955 3.70556 11.3478C3.63676 11.5 3.61875 11.6676 3.65383 11.8292C3.68891 11.9909 3.77549 12.1394 3.90263 12.2559C4.02977 12.3725 4.19175 12.4518 4.3681 12.484C4.54445 12.5161 4.72723 12.4996 4.89335 12.4366C5.05946 12.3735 5.20144 12.2667 5.30134 12.1296C5.40123 11.9926 5.45455 11.8315 5.45455 11.6667C5.45455 11.4457 5.35877 11.2337 5.18828 11.0774C5.01779 10.9211 4.78656 10.8333 4.54545 10.8333ZM8.18182 10.8333C8.00202 10.8333 7.82625 10.8822 7.67675 10.9738C7.52726 11.0653 7.41073 11.1955 7.34193 11.3478C7.27312 11.5 7.25512 11.6676 7.2902 11.8292C7.32527 11.9909 7.41186 12.1394 7.53899 12.2559C7.66613 12.3725 7.82812 12.4518 8.00446 12.484C8.18081 12.5161 8.3636 12.4996 8.52971 12.4366C8.69583 12.3735 8.83781 12.2667 8.9377 12.1296C9.03759 11.9926 9.09091 11.8315 9.09091 11.6667C9.09091 11.4457 8.99513 11.2337 8.82464 11.0774C8.65415 10.9211 8.42292 10.8333 8.18182 10.8333ZM11.8182 10.8333C11.6384 10.8333 11.4626 10.8822 11.3131 10.9738C11.1636 11.0653 11.0471 11.1955 10.9783 11.3478C10.9095 11.5 10.8915 11.6676 10.9266 11.8292C10.9616 11.9909 11.0482 12.1394 11.1754 12.2559C11.3025 12.3725 11.4645 12.4518 11.6408 12.484C11.8172 12.5161 12 12.4996 12.1661 12.4366C12.3322 12.3735 12.4742 12.2667 12.5741 12.1296C12.674 11.9926 12.7273 11.8315 12.7273 11.6667C12.7273 11.4457 12.6315 11.2337 12.461 11.0774C12.2905 10.9211 12.0593 10.8333 11.8182 10.8333ZM4.54545 14.1667C4.36565 14.1667 4.18989 14.2155 4.04039 14.3071C3.89089 14.3987 3.77437 14.5288 3.70556 14.6811C3.63676 14.8334 3.61875 15.0009 3.65383 15.1626C3.68891 15.3242 3.77549 15.4727 3.90263 15.5893C4.02977 15.7058 4.19175 15.7852 4.3681 15.8173C4.54445 15.8495 4.72723 15.833 4.89335 15.7699C5.05946 15.7068 5.20144 15.6 5.30134 15.463C5.40123 15.3259 5.45455 15.1648 5.45455 15C5.45455 14.779 5.35877 14.567 5.18828 14.4107C5.01779 14.2545 4.78656 14.1667 4.54545 14.1667ZM8.18182 14.1667C8.00202 14.1667 7.82625 14.2155 7.67675 14.3071C7.52726 14.3987 7.41073 14.5288 7.34193 14.6811C7.27312 14.8334 7.25512 15.0009 7.2902 15.1626C7.32527 15.3242 7.41186 15.4727 7.53899 15.5893C7.66613 15.7058 7.82812 15.7852 8.00446 15.8173C8.18081 15.8495 8.3636 15.833 8.52971 15.7699C8.69583 15.7068 8.83781 15.6 8.9377 15.463C9.03759 15.3259 9.09091 15.1648 9.09091 15C9.09091 14.779 8.99513 14.567 8.82464 14.4107C8.65415 14.2545 8.42292 14.1667 8.18182 14.1667ZM15.4545 10.8333C15.2747 10.8333 15.099 10.8822 14.9495 10.9738C14.8 11.0653 14.6835 11.1955 14.6147 11.3478C14.5458 11.5 14.5278 11.6676 14.5629 11.8292C14.598 11.9909 14.6846 12.1394 14.8117 12.2559C14.9389 12.3725 15.1008 12.4518 15.2772 12.484C15.4535 12.5161 15.6363 12.4996 15.8024 12.4366C15.9686 12.3735 16.1105 12.2667 16.2104 12.1296C16.3103 11.9926 16.3636 11.8315 16.3636 11.6667C16.3636 11.4457 16.2679 11.2337 16.0974 11.0774C15.9269 10.9211 15.6957 10.8333 15.4545 10.8333ZM16.3636 15C16.3636 14.779 16.2679 14.567 16.0974 14.4107C15.9269 14.2545 15.6957 14.1667 15.4545 14.1667H11.8182C11.5771 14.1667 11.3458 14.2545 11.1754 14.4107C11.0049 14.567 10.9091 14.779 10.9091 15C10.9091 15.221 11.0049 15.433 11.1754 15.5893C11.3458 15.7455 11.5771 15.8333 11.8182 15.8333H15.4545C15.6957 15.8333 15.9269 15.7455 16.0974 15.5893C16.2679 15.433 16.3636 15.221 16.3636 15Z"
      fill="#8A8A8A"/>
</svg>
